<mxfile host="app.diagrams.net" modified="2021-12-31T11:10:24.359Z" agent="5.0 (Windows NT 10.0; Win64; x64) AppleWebKit/537.36 (KHTML, like Gecko) Chrome/96.0.4664.110 Safari/537.36 Edg/96.0.1054.62" etag="32ZbXs-DRdW7wDvGcm9F" version="15.6.6" type="github">
  <diagram id="C5RBs43oDa-KdzZeNtuy" name="Page-1">
    <mxGraphModel dx="981" dy="542" grid="1" gridSize="10" guides="1" tooltips="1" connect="1" arrows="1" fold="1" page="1" pageScale="1" pageWidth="827" pageHeight="1169" math="0" shadow="0">
      <root>
        <mxCell id="WIyWlLk6GJQsqaUBKTNV-0" />
        <mxCell id="WIyWlLk6GJQsqaUBKTNV-1" parent="WIyWlLk6GJQsqaUBKTNV-0" />
        <mxCell id="WIyWlLk6GJQsqaUBKTNV-2" value="" style="rounded=0;html=1;jettySize=auto;orthogonalLoop=1;fontSize=11;endArrow=block;endFill=0;endSize=8;strokeWidth=1;shadow=0;labelBackgroundColor=none;edgeStyle=orthogonalEdgeStyle;" parent="WIyWlLk6GJQsqaUBKTNV-1" source="WIyWlLk6GJQsqaUBKTNV-3" target="WIyWlLk6GJQsqaUBKTNV-6" edge="1">
          <mxGeometry relative="1" as="geometry" />
        </mxCell>
        <mxCell id="WIyWlLk6GJQsqaUBKTNV-3" value="&lt;font style=&quot;font-size: 11px&quot;&gt;调用方法&lt;br style=&quot;font-size: 11px&quot;&gt;UI管理器.实例.获取UI&amp;lt;UI类&amp;gt;()&lt;br&gt;&lt;br&gt;&lt;/font&gt;" style="rounded=1;whiteSpace=wrap;html=1;fontSize=12;glass=0;strokeWidth=1;shadow=0;fillColor=default;strokeColor=default;fontColor=default;verticalAlign=top;" parent="WIyWlLk6GJQsqaUBKTNV-1" vertex="1">
          <mxGeometry x="80" y="40" width="280" height="50" as="geometry" />
        </mxCell>
        <mxCell id="21q9eJ_TdUvpPahYwv4E-7" style="edgeStyle=orthogonalEdgeStyle;rounded=0;orthogonalLoop=1;jettySize=auto;html=1;entryX=0.5;entryY=0;entryDx=0;entryDy=0;labelBackgroundColor=default;fontSize=11;fontColor=default;strokeColor=default;" edge="1" parent="WIyWlLk6GJQsqaUBKTNV-1" source="WIyWlLk6GJQsqaUBKTNV-6" target="21q9eJ_TdUvpPahYwv4E-1">
          <mxGeometry relative="1" as="geometry" />
        </mxCell>
        <mxCell id="21q9eJ_TdUvpPahYwv4E-8" style="edgeStyle=orthogonalEdgeStyle;rounded=0;orthogonalLoop=1;jettySize=auto;html=1;entryX=0.5;entryY=0;entryDx=0;entryDy=0;labelBackgroundColor=default;fontSize=11;fontColor=default;strokeColor=default;" edge="1" parent="WIyWlLk6GJQsqaUBKTNV-1" source="WIyWlLk6GJQsqaUBKTNV-6" target="WIyWlLk6GJQsqaUBKTNV-7">
          <mxGeometry relative="1" as="geometry" />
        </mxCell>
        <mxCell id="WIyWlLk6GJQsqaUBKTNV-6" value="&lt;font style=&quot;font-size: 11px&quot;&gt;UI是否存在字典中&lt;/font&gt;" style="rhombus;whiteSpace=wrap;html=1;shadow=0;fontFamily=Helvetica;fontSize=12;align=center;strokeWidth=1;spacing=6;spacingTop=-4;fillColor=default;strokeColor=default;fontColor=default;" parent="WIyWlLk6GJQsqaUBKTNV-1" vertex="1">
          <mxGeometry x="155" y="110" width="130" height="60" as="geometry" />
        </mxCell>
        <mxCell id="21q9eJ_TdUvpPahYwv4E-27" value="" style="edgeStyle=orthogonalEdgeStyle;rounded=0;orthogonalLoop=1;jettySize=auto;html=1;labelBackgroundColor=default;fontSize=11;fontColor=default;strokeColor=default;" edge="1" parent="WIyWlLk6GJQsqaUBKTNV-1" source="WIyWlLk6GJQsqaUBKTNV-7" target="21q9eJ_TdUvpPahYwv4E-26">
          <mxGeometry relative="1" as="geometry" />
        </mxCell>
        <mxCell id="WIyWlLk6GJQsqaUBKTNV-7" value="创建UI类,并初始化" style="rounded=1;whiteSpace=wrap;html=1;fontSize=12;glass=0;strokeWidth=1;shadow=0;fillColor=default;strokeColor=default;fontColor=default;" parent="WIyWlLk6GJQsqaUBKTNV-1" vertex="1">
          <mxGeometry x="310" y="160" width="120" height="30" as="geometry" />
        </mxCell>
        <mxCell id="21q9eJ_TdUvpPahYwv4E-2" style="edgeStyle=orthogonalEdgeStyle;rounded=0;orthogonalLoop=1;jettySize=auto;html=1;labelBackgroundColor=default;fontSize=11;fontColor=default;strokeColor=default;entryX=0.5;entryY=0;entryDx=0;entryDy=0;" edge="1" parent="WIyWlLk6GJQsqaUBKTNV-1" source="21q9eJ_TdUvpPahYwv4E-1" target="21q9eJ_TdUvpPahYwv4E-3">
          <mxGeometry relative="1" as="geometry">
            <mxPoint x="220" y="459.9999999999999" as="targetPoint" />
          </mxGeometry>
        </mxCell>
        <mxCell id="21q9eJ_TdUvpPahYwv4E-1" value="获取UI类" style="rounded=1;whiteSpace=wrap;html=1;fontSize=11;fontColor=default;strokeColor=default;fillColor=default;align=center;verticalAlign=top;labelBackgroundColor=default;" vertex="1" parent="WIyWlLk6GJQsqaUBKTNV-1">
          <mxGeometry x="160" y="370" width="120" height="30" as="geometry" />
        </mxCell>
        <mxCell id="21q9eJ_TdUvpPahYwv4E-3" value="返回该UI" style="rounded=1;whiteSpace=wrap;html=1;fontSize=11;fontColor=default;strokeColor=default;fillColor=default;align=center;verticalAlign=top;labelBackgroundColor=default;" vertex="1" parent="WIyWlLk6GJQsqaUBKTNV-1">
          <mxGeometry x="160" y="420" width="120" height="30" as="geometry" />
        </mxCell>
        <mxCell id="21q9eJ_TdUvpPahYwv4E-15" value="" style="edgeStyle=orthogonalEdgeStyle;rounded=0;orthogonalLoop=1;jettySize=auto;html=1;labelBackgroundColor=default;fontSize=11;fontColor=default;strokeColor=default;" edge="1" parent="WIyWlLk6GJQsqaUBKTNV-1" source="21q9eJ_TdUvpPahYwv4E-10" target="21q9eJ_TdUvpPahYwv4E-14">
          <mxGeometry relative="1" as="geometry" />
        </mxCell>
        <mxCell id="21q9eJ_TdUvpPahYwv4E-10" value="UI.打开()" style="rounded=1;whiteSpace=wrap;html=1;labelBackgroundColor=default;fontSize=11;fontColor=default;strokeColor=default;fillColor=default;align=center;verticalAlign=top;" vertex="1" parent="WIyWlLk6GJQsqaUBKTNV-1">
          <mxGeometry x="590" y="40" width="140" height="30" as="geometry" />
        </mxCell>
        <mxCell id="21q9eJ_TdUvpPahYwv4E-22" value="" style="edgeStyle=orthogonalEdgeStyle;rounded=0;orthogonalLoop=1;jettySize=auto;html=1;labelBackgroundColor=default;fontSize=11;fontColor=default;strokeColor=default;" edge="1" parent="WIyWlLk6GJQsqaUBKTNV-1" source="21q9eJ_TdUvpPahYwv4E-12" target="21q9eJ_TdUvpPahYwv4E-21">
          <mxGeometry relative="1" as="geometry" />
        </mxCell>
        <mxCell id="21q9eJ_TdUvpPahYwv4E-12" value="UI管理器根据Page字段&lt;br&gt;打开对应Page&amp;nbsp;" style="rounded=1;whiteSpace=wrap;html=1;labelBackgroundColor=default;fontSize=11;fontColor=default;strokeColor=default;fillColor=default;align=center;verticalAlign=top;" vertex="1" parent="WIyWlLk6GJQsqaUBKTNV-1">
          <mxGeometry x="565" y="150" width="190" height="40" as="geometry" />
        </mxCell>
        <mxCell id="21q9eJ_TdUvpPahYwv4E-16" value="" style="edgeStyle=orthogonalEdgeStyle;rounded=0;orthogonalLoop=1;jettySize=auto;html=1;labelBackgroundColor=default;fontSize=11;fontColor=default;strokeColor=default;" edge="1" parent="WIyWlLk6GJQsqaUBKTNV-1" source="21q9eJ_TdUvpPahYwv4E-14" target="21q9eJ_TdUvpPahYwv4E-12">
          <mxGeometry relative="1" as="geometry" />
        </mxCell>
        <mxCell id="21q9eJ_TdUvpPahYwv4E-18" value="" style="edgeStyle=orthogonalEdgeStyle;rounded=0;orthogonalLoop=1;jettySize=auto;html=1;labelBackgroundColor=default;fontSize=11;fontColor=default;strokeColor=default;" edge="1" parent="WIyWlLk6GJQsqaUBKTNV-1" source="21q9eJ_TdUvpPahYwv4E-14" target="21q9eJ_TdUvpPahYwv4E-17">
          <mxGeometry relative="1" as="geometry" />
        </mxCell>
        <mxCell id="21q9eJ_TdUvpPahYwv4E-14" value="Page是否为Null" style="rhombus;whiteSpace=wrap;html=1;labelBackgroundColor=default;fontSize=11;fontColor=default;strokeColor=default;fillColor=default;align=center;verticalAlign=middle;" vertex="1" parent="WIyWlLk6GJQsqaUBKTNV-1">
          <mxGeometry x="580" y="90" width="160" height="40" as="geometry" />
        </mxCell>
        <mxCell id="21q9eJ_TdUvpPahYwv4E-17" value="报错" style="whiteSpace=wrap;html=1;fontSize=11;labelBackgroundColor=default;fillColor=default;strokeColor=default;fontColor=default;" vertex="1" parent="WIyWlLk6GJQsqaUBKTNV-1">
          <mxGeometry x="771" y="100" width="49" height="20" as="geometry" />
        </mxCell>
        <mxCell id="21q9eJ_TdUvpPahYwv4E-21" value="数据获取, 刷新页面" style="whiteSpace=wrap;html=1;rounded=1;fontSize=11;verticalAlign=top;labelBackgroundColor=default;fillColor=default;strokeColor=default;fontColor=default;" vertex="1" parent="WIyWlLk6GJQsqaUBKTNV-1">
          <mxGeometry x="580" y="220" width="160" height="30" as="geometry" />
        </mxCell>
        <mxCell id="21q9eJ_TdUvpPahYwv4E-39" value="" style="edgeStyle=orthogonalEdgeStyle;rounded=0;orthogonalLoop=1;jettySize=auto;html=1;labelBackgroundColor=default;fontSize=11;fontColor=default;strokeColor=default;" edge="1" parent="WIyWlLk6GJQsqaUBKTNV-1" source="21q9eJ_TdUvpPahYwv4E-25" target="21q9eJ_TdUvpPahYwv4E-38">
          <mxGeometry relative="1" as="geometry" />
        </mxCell>
        <mxCell id="21q9eJ_TdUvpPahYwv4E-25" value="UI.更新()" style="rounded=1;whiteSpace=wrap;html=1;labelBackgroundColor=default;fontSize=11;fontColor=default;strokeColor=default;fillColor=default;align=center;verticalAlign=top;" vertex="1" parent="WIyWlLk6GJQsqaUBKTNV-1">
          <mxGeometry x="590" y="280" width="140" height="30" as="geometry" />
        </mxCell>
        <mxCell id="21q9eJ_TdUvpPahYwv4E-31" value="" style="edgeStyle=orthogonalEdgeStyle;rounded=0;orthogonalLoop=1;jettySize=auto;html=1;labelBackgroundColor=default;fontSize=11;fontColor=default;strokeColor=default;" edge="1" parent="WIyWlLk6GJQsqaUBKTNV-1" source="21q9eJ_TdUvpPahYwv4E-26" target="21q9eJ_TdUvpPahYwv4E-30">
          <mxGeometry relative="1" as="geometry" />
        </mxCell>
        <mxCell id="21q9eJ_TdUvpPahYwv4E-26" value="获取Page字段类名" style="whiteSpace=wrap;html=1;rounded=1;shadow=0;strokeWidth=1;glass=0;fillColor=default;strokeColor=default;fontColor=default;" vertex="1" parent="WIyWlLk6GJQsqaUBKTNV-1">
          <mxGeometry x="310" y="210" width="120" height="30" as="geometry" />
        </mxCell>
        <mxCell id="21q9eJ_TdUvpPahYwv4E-33" value="" style="edgeStyle=orthogonalEdgeStyle;rounded=0;orthogonalLoop=1;jettySize=auto;html=1;labelBackgroundColor=default;fontSize=11;fontColor=default;strokeColor=default;" edge="1" parent="WIyWlLk6GJQsqaUBKTNV-1" source="21q9eJ_TdUvpPahYwv4E-30" target="21q9eJ_TdUvpPahYwv4E-32">
          <mxGeometry relative="1" as="geometry" />
        </mxCell>
        <mxCell id="21q9eJ_TdUvpPahYwv4E-35" style="edgeStyle=orthogonalEdgeStyle;rounded=0;orthogonalLoop=1;jettySize=auto;html=1;exitX=1;exitY=0.5;exitDx=0;exitDy=0;labelBackgroundColor=default;fontSize=11;fontColor=default;strokeColor=default;" edge="1" parent="WIyWlLk6GJQsqaUBKTNV-1" source="21q9eJ_TdUvpPahYwv4E-30">
          <mxGeometry relative="1" as="geometry">
            <mxPoint x="460" y="280.0689655172414" as="targetPoint" />
          </mxGeometry>
        </mxCell>
        <mxCell id="21q9eJ_TdUvpPahYwv4E-30" value="Page字段是否在字典内" style="rhombus;whiteSpace=wrap;html=1;labelBackgroundColor=default;fontSize=11;fontColor=default;strokeColor=default;fillColor=default;align=center;verticalAlign=middle;" vertex="1" parent="WIyWlLk6GJQsqaUBKTNV-1">
          <mxGeometry x="300" y="260" width="140" height="40" as="geometry" />
        </mxCell>
        <mxCell id="21q9eJ_TdUvpPahYwv4E-34" style="edgeStyle=orthogonalEdgeStyle;rounded=0;orthogonalLoop=1;jettySize=auto;html=1;entryX=1;entryY=0.5;entryDx=0;entryDy=0;labelBackgroundColor=default;fontSize=11;fontColor=default;strokeColor=default;" edge="1" parent="WIyWlLk6GJQsqaUBKTNV-1" source="21q9eJ_TdUvpPahYwv4E-32" target="21q9eJ_TdUvpPahYwv4E-1">
          <mxGeometry relative="1" as="geometry">
            <Array as="points">
              <mxPoint x="370" y="385" />
            </Array>
          </mxGeometry>
        </mxCell>
        <mxCell id="21q9eJ_TdUvpPahYwv4E-32" value="Page字段赋值" style="whiteSpace=wrap;html=1;fontSize=11;labelBackgroundColor=default;fillColor=default;strokeColor=default;fontColor=default;" vertex="1" parent="WIyWlLk6GJQsqaUBKTNV-1">
          <mxGeometry x="310" y="320" width="120" height="30" as="geometry" />
        </mxCell>
        <mxCell id="21q9eJ_TdUvpPahYwv4E-37" value="报错" style="whiteSpace=wrap;html=1;fontSize=11;labelBackgroundColor=default;fillColor=default;strokeColor=default;fontColor=default;" vertex="1" parent="WIyWlLk6GJQsqaUBKTNV-1">
          <mxGeometry x="460" y="270" width="49" height="20" as="geometry" />
        </mxCell>
        <mxCell id="21q9eJ_TdUvpPahYwv4E-38" value="获取数据,&lt;br&gt;输出到page里" style="whiteSpace=wrap;html=1;rounded=1;fontSize=11;verticalAlign=top;labelBackgroundColor=default;fillColor=default;strokeColor=default;fontColor=default;" vertex="1" parent="WIyWlLk6GJQsqaUBKTNV-1">
          <mxGeometry x="590" y="340" width="140" height="40" as="geometry" />
        </mxCell>
      </root>
    </mxGraphModel>
  </diagram>
</mxfile>
